<svg width="400" height="601" viewBox="1em" fill="none" xmlns="http://www.w3.org/2000/svg">
<path d="M100.072 200.098C126.051 200.904 150.695 211.79 168.787 230.451C186.878 249.112 196.995 274.083 196.995 300.074C196.995 326.065 186.878 351.035 168.787 369.696C150.695 388.358 126.051 399.244 100.072 400.05C80.2872 400.05 60.9467 405.917 44.4968 416.91C28.0469 427.903 15.2266 443.528 7.65742 461.807C0.0882517 480.087 -1.88975 500.201 1.9736 519.605C5.83695 539.009 15.3681 556.832 29.3615 570.818C43.3549 584.805 61.182 594.328 80.5879 598.182C99.9939 602.036 120.107 600.048 138.383 592.47C156.659 584.892 172.277 572.064 183.262 555.609C194.247 539.154 200.106 519.811 200.096 500.026C200.109 473.506 210.653 448.077 229.41 429.329C248.166 410.581 273.601 400.05 300.12 400.05C313.249 400.05 326.25 397.464 338.379 392.44C350.509 387.415 361.53 380.051 370.814 370.768C380.098 361.484 387.462 350.463 392.486 338.333C397.51 326.203 400.096 313.203 400.096 300.074C400.096 286.945 397.51 273.944 392.486 261.815C387.462 249.685 380.098 238.664 370.814 229.38C361.53 220.097 350.509 212.732 338.379 207.708C326.25 202.684 313.249 200.098 300.12 200.098C286.985 200.104 273.977 197.523 261.839 192.502C249.701 187.482 238.671 180.119 229.378 170.836C220.086 161.552 212.713 150.529 207.68 138.396C202.648 126.263 200.054 113.257 200.048 100.122C200.048 80.337 194.181 60.9965 183.188 44.5466C172.195 28.0967 156.57 15.2764 138.29 7.70721C120.011 0.138047 99.8967 -1.83995 80.4927 2.0234C61.0886 5.88675 43.2661 15.4179 29.2794 29.4113C15.2927 43.4047 5.77014 61.2318 1.91612 80.6377C-1.9379 100.044 0.0497736 120.157 7.62773 138.433C15.2057 156.709 28.0335 172.327 44.4887 183.312C60.9439 194.297 80.2872 200.156 100.072 200.146" fill="#F76902"/>
</svg>
