<svg xmlns="http://www.w3.org/2000/svg" id="rit-logo-full" viewBox="0 0 379.820 52.675">
	<rect class="divider" x="142.23" width="0.75" height="49.01" fill="var(--text-color)"></rect>
	<g class="rit-full-text" fill="var(--text-color)">
		<path class="cls-1" d="M164.9,13.08h-3.2v7.48h-4.06V1.19h8.5A6.79,6.79,0,0,1,171.21,3a5.78,5.78,0,0,1,1.73,4.2,5.35,5.35,0,0,1-3.85,5.42l4.85,7.94h-4.55Zm-3.2-3.2h4.06c2.06,0,3.14-.95,3.14-2.65s-1.14-2.63-3.09-2.63H161.7Zm12.16,3.74a7.26,7.26,0,1,1,14.52,0,7.26,7.26,0,1,1-14.52,0Zm10.78,0c0-2.71-1.27-4.55-3.52-4.55s-3.52,1.84-3.52,4.55,1.25,4.52,3.52,4.52S184.64,16.33,184.64,13.62Zm4.76,0c0-4.14,2.71-7.34,6.93-7.34,3.6,0,5.82,2.09,6.31,5.09H199a2.55,2.55,0,0,0-2.55-2.14c-2.22,0-3.36,1.71-3.36,4.39S194.2,18,196.45,18a2.59,2.59,0,0,0,2.79-2.36h3.55c-.24,3-2.55,5.31-6.26,5.31C192.14,21,189.4,17.76,189.4,13.62Zm18.66-5.15h.08a4.43,4.43,0,0,1,4-2.19c2.87,0,4.79,2.17,4.79,5.2v9.07h-3.68V12a2.31,2.31,0,0,0-2.41-2.55,2.9,2.9,0,0,0-2.82,3.2v7.88h-3.68V1.19h3.68Zm10.51,5.12c0-4.12,2.79-7.31,6.85-7.31,4.47,0,6.85,3.41,6.85,8.37H222.2c.27,2.14,1.46,3.47,3.55,3.47a2.59,2.59,0,0,0,2.68-1.71h3.63c-.51,2.46-2.71,4.55-6.28,4.55C221.17,21,218.57,17.73,218.57,13.59Zm3.68-1.49h6.18a2.93,2.93,0,0,0-3-3C223.52,9.12,222.58,10.29,222.25,12.1Zm10.86,4h3.41c.24,1.6,1.38,2.3,3,2.3s2.55-.62,2.55-1.6c0-1.33-1.76-1.46-3.66-1.84-2.49-.49-4.93-1.16-4.93-4.2s2.49-4.44,5.66-4.44c3.66,0,5.69,1.81,6,4.6H241.8c-.16-1.49-1.11-2-2.68-2s-2.38.54-2.38,1.54c0,1.19,1.84,1.3,3.82,1.71,2.33.49,4.9,1.14,4.9,4.39,0,2.79-2.38,4.47-5.85,4.47C235.57,21,233.33,19,233.11,16.06ZM246,6.66H248V2.32h3.6V6.66h2.38V9.09h-2.38v7.37a1.22,1.22,0,0,0,1.38,1.38c.46,0,1.08,0,1.08,0v2.71s-.84.05-2.3.05c-1.79,0-3.76-.7-3.76-3.33V9.09H246Zm9,6.93c0-4.12,2.79-7.31,6.85-7.31,4.47,0,6.85,3.41,6.85,8.37H258.65c.27,2.14,1.46,3.47,3.55,3.47a2.59,2.59,0,0,0,2.68-1.71h3.63C268,18.87,265.8,21,262.22,21,257.62,21,255,17.73,255,13.59Zm3.68-1.49h6.18a2.93,2.93,0,0,0-3-3C260,9.12,259,10.29,258.7,12.1ZM274,8.88h.08c.84-1.57,1.79-2.38,3.41-2.38a2.4,2.4,0,0,1,.87.11V9.83h-.08c-2.41-.24-4.14,1-4.14,4v6.77h-3.68V6.66H274Zm10.83-7.69h3.93V20.55h-3.93ZM295,8.55h.08a4.51,4.51,0,0,1,4.12-2.28c2.87,0,4.79,2.17,4.79,5.2v9.07h-3.68V12a2.31,2.31,0,0,0-2.41-2.55,2.9,2.9,0,0,0-2.82,3.2v7.88h-3.68V6.66H295Zm10.4,7.5h3.41c.24,1.6,1.38,2.3,3,2.3s2.55-.62,2.55-1.6c0-1.33-1.76-1.46-3.66-1.84-2.49-.49-4.93-1.16-4.93-4.2s2.49-4.44,5.66-4.44c3.66,0,5.69,1.81,6,4.6h-3.33c-.16-1.49-1.11-2-2.68-2s-2.38.54-2.38,1.54c0,1.19,1.84,1.3,3.82,1.71,2.33.49,4.9,1.14,4.9,4.39,0,2.79-2.38,4.47-5.85,4.47C307.9,21,305.66,19,305.44,16.06Zm12.92-9.4h1.92V2.32h3.6V6.66h2.38V9.09h-2.38v7.37a1.22,1.22,0,0,0,1.38,1.38c.46,0,1.08,0,1.08,0v2.71s-.84.05-2.3.05c-1.79,0-3.76-.7-3.76-3.33V9.09h-1.92Zm9.8-5.47h3.68v3.3h-3.68Zm0,5.47h3.68V20.55h-3.68Zm5.25,0h1.92V2.32h3.6V6.66h2.38V9.09h-2.38v7.37a1.22,1.22,0,0,0,1.38,1.38c.46,0,1.08,0,1.08,0v2.71s-.84.05-2.3.05c-1.79,0-3.76-.7-3.76-3.33V9.09h-1.92ZM352,20.55V18.93h-.08a4.46,4.46,0,0,1-4,2c-3.09,0-4.82-2-4.82-5V6.66h3.66V15.3c0,1.63.73,2.52,2.3,2.52,1.73,0,2.79-1.3,2.79-3.14v-8h3.68V20.55Zm5.12-13.89H359V2.32h3.6V6.66H365V9.09h-2.38v7.37A1.22,1.22,0,0,0,364,17.84c.46,0,1.08,0,1.08,0v2.71s-.84.05-2.3.05c-1.79,0-3.76-.7-3.76-3.33V9.09h-1.92Zm9,6.93c0-4.12,2.79-7.31,6.85-7.31,4.47,0,6.85,3.41,6.85,8.37H369.73c.27,2.14,1.46,3.47,3.55,3.47A2.59,2.59,0,0,0,376,16.41h3.63c-.51,2.46-2.71,4.55-6.28,4.55C368.7,21,366.1,17.73,366.1,13.59Zm3.68-1.49H376a2.93,2.93,0,0,0-3-3C371.05,9.12,370.11,10.29,369.78,12.1Z"></path><path class="cls-1" d="M156.66,41a7.26,7.26,0,1,1,14.52,0,7.26,7.26,0,1,1-14.52,0Zm10.78,0c0-2.71-1.27-4.55-3.52-4.55S160.4,38.28,160.4,41s1.25,4.52,3.52,4.52S167.44,43.69,167.44,41Z"></path><path class="cls-1" d="M171.83,34h1.9V32.78c0-3.39,2.63-4.58,6.18-4.2v2.84c-1.73-.08-2.49.14-2.49,1.57v1h2.49v2.55h-2.49V47.92h-3.68V36.57h-1.9Z"></path><path class="cls-1" d="M185.42,28.55H201v3.3h-5.82V47.92h-3.93V31.86h-5.82Z"></path><path class="cls-1" d="M198.88,41c0-4.12,2.79-7.31,6.85-7.31,4.47,0,6.85,3.41,6.85,8.37H202.51c.27,2.14,1.46,3.47,3.55,3.47a2.59,2.59,0,0,0,2.68-1.71h3.63c-.51,2.46-2.71,4.55-6.28,4.55C201.48,48.33,198.88,45.1,198.88,41Zm3.68-1.49h6.18a2.93,2.93,0,0,0-3-3C203.84,36.49,202.89,37.66,202.56,39.47Z"></path><path class="cls-1" d="M213.61,41c0-4.14,2.71-7.34,6.93-7.34,3.6,0,5.82,2.09,6.31,5.09h-3.6a2.55,2.55,0,0,0-2.55-2.14c-2.22,0-3.36,1.71-3.36,4.39s1.06,4.39,3.3,4.39A2.59,2.59,0,0,0,223.44,43H227c-.24,3-2.55,5.31-6.26,5.31C216.35,48.33,213.61,45.13,213.61,41Z"></path><path class="cls-1" d="M232.27,35.84h.08a4.43,4.43,0,0,1,4-2.19c2.87,0,4.79,2.17,4.79,5.2v9.07H237.5V39.39a2.31,2.31,0,0,0-2.41-2.55,2.9,2.9,0,0,0-2.82,3.2v7.88h-3.68V28.55h3.68Z"></path><path class="cls-1" d="M247.06,35.92h.08a4.51,4.51,0,0,1,4.12-2.28c2.87,0,4.79,2.17,4.79,5.2v9.07h-3.68V39.39A2.31,2.31,0,0,0,250,36.84a2.9,2.9,0,0,0-2.82,3.2v7.88h-3.68V34h3.6Z"></path><path class="cls-1" d="M257.64,41a7.26,7.26,0,1,1,14.52,0,7.26,7.26,0,1,1-14.52,0Zm10.78,0c0-2.71-1.27-4.55-3.52-4.55s-3.52,1.84-3.52,4.55,1.25,4.52,3.52,4.52S268.42,43.69,268.42,41Z"></path><path class="cls-1" d="M273.92,28.55h3.68V47.92h-3.68Z"></path><path class="cls-1" d="M279.36,41a7.26,7.26,0,1,1,14.52,0,7.26,7.26,0,1,1-14.52,0Zm10.78,0c0-2.71-1.27-4.55-3.52-4.55S283.1,38.28,283.1,41s1.25,4.52,3.52,4.52S290.14,43.69,290.14,41Z"></path><path class="cls-1" d="M295.2,48.33h3.66c.3.87,1.08,1.54,2.79,1.54,2.09,0,3.09-1,3.09-2.9V45.46h-.08A4.49,4.49,0,0,1,301,47.08c-3.09,0-6.12-2.44-6.12-6.64s2.49-6.8,6-6.8a4.48,4.48,0,0,1,3.85,1.84h.05V34h3.55V46.86a5.39,5.39,0,0,1-1.65,4.23,7.27,7.27,0,0,1-5,1.57C297.91,52.66,295.58,51,295.2,48.33Zm9.72-8c0-2-1.08-3.76-3.3-3.76-1.87,0-3.11,1.46-3.11,3.79s1.25,3.74,3.14,3.74C304,44.13,304.92,42.42,304.92,40.36Z"></path><path class="cls-1" d="M311,49.57h1.3c1.46,0,2.06-.76,2.06-1.9a12.05,12.05,0,0,0-1.06-3.76L309.61,34h3.87l2.06,6.26c.43,1.27.89,3,.89,3h.05s.38-1.76.81-3l2-6.26H323l-4.85,14.25c-1.06,3.09-2.09,4.2-4.9,4.2H311Z"></path>
	</g>
	<g class="rit-short-text" fill="var(--logo-color)" id="rit-short-text">
		<path d="M15.58,3.52a17.89,17.89,0,0,1,3.54-.07l1,0c6.15,0,9.68,3.63,9.68,10,0,4.61-1.22,7.26-3.94,8.59-2.54,1.24-6.21,1.23-10.46,1.23H15V5.76c0-.09,0-.19,0-.3,0-.71,0-1.67.55-1.94M48.21,49V46L47.86,46c-3.48-.55-4.53-1-6.82-3.62L26.69,25.73c7.55-1,12.21-6,12.21-13.3,0-4.74-1.81-8.15-5.39-10.16C30.8.75,27,0,22,0c-1.51,0-3.07.09-4.57.15S14.32.26,12.82.3C10.76.26,8.65.21,6.61.15S2.47,0,.42,0H0V3H.6C2.89,3,5.47,3,6.15,5.24c.63,1.9.63,7.25.63,9v20c0,2.86,0,7.64-.63,9.55C5.45,46,2.66,46,.41,46H0v3H.42c1.81,0,3.64-.09,5.41-.15s3.6-.11,5.39-.15,3.57.1,5.3.15,3.26.11,4.87.14h.42V46h-.6c-2.25,0-4.81,0-5.55-2.19-.63-1.9-.63-6.7-.63-9V26.59c2.68,0,2.92.31,4.3,2,.26.31.55.67.88,1.06l12,15L35.7,49h.21c.9,0,1.82-.09,2.71-.14s1.79-.11,2.68-.15c1.07,0,2.17.09,3.22.15s2.17.11,3.25.14Z"></path><path d="M69.74,34.23V14.78c0-2.29,0-7.64.69-9.53C71.27,3,74,3,76.25,3h.41V0h-.42c-1.78,0-3.6.09-5.35.14S67.21.26,65.37.3,61.89.21,60.19.15,56.72,0,55,0h-.42V3H55c2.22,0,5,0,5.82,2.2.69,1.89.69,7.24.69,9.53V34.23c0,2.29,0,7.64-.69,9.53C60,46,57.19,46,55,46h-.41v3H55c1.81,0,3.67-.09,5.46-.15s3.63-.11,5.41-.15,3.55.09,5.29.15,3.42.11,5.09.14h.42V46h-.41c-2.22,0-5,0-5.82-2.2-.69-1.89-.69-7.25-.69-9.53"></path><path d="M128.68,12.72V0H83.22V12.72h3v-.4C86.51,4,89.64,3.7,96.71,3.7h.73c1.76,0,3.42,0,4.07.63a1.24,1.24,0,0,1,.32.92V38.66c0,5-.69,7-7.61,7.3l-.39,0v3h.42c2,0,3.95-.09,5.85-.15s3.74-.11,5.6-.14,4,.09,6,.15,4,.11,6,.15h.42V46l-.4,0c-6.92-.29-7.61-2.34-7.61-7.3V5.25a1.11,1.11,0,0,1,.32-.83c.8-.79,3-.76,4.76-.73h1c6.91,0,9.14,2,9.54,8.63l0,.39Z"></path>
	</g>
</svg>
