<svg xmlns="http://www.w3.org/2000/svg" viewBox="0 0 133.47 148.77"><defs><style>.cls-1{fill:none;stroke:#000;stroke-miterlimit:10;}.cls-2{fill:#f76902;}</style></defs><g id="Layer_2" data-name="Layer 2"><g id="Layer_1-2" data-name="Layer 1"><path d="M56.83,82.84a46.81,46.81,0,1,1,65.91-6.2A46.85,46.85,0,0,1,56.83,82.84ZM115.9,11.5A45.81,45.81,0,1,0,122,76,45.87,45.87,0,0,0,115.9,11.5Z"/><rect class="cls-1" x="11.34" y="126" width="2.36" height="20.74" rx="0.53" transform="translate(-100.5 59.05) rotate(-50.38)"/><path class="cls-1" d="M2.1,132.69l-.45.55a5,5,0,0,0,.66,7l8.29,6.87a5,5,0,0,0,7-.66l.46-.56a.53.53,0,0,0-.07-.74L2.85,132.62A.53.53,0,0,0,2.1,132.69Z"/><path class="cls-1" d="M61.53,86.63l-9.3-7.69a4.56,4.56,0,0,1-4.74,1.53,2.69,2.69,0,0,0-2.84.82L7,126.82a.53.53,0,0,0,.07.74l15.16,12.55a.53.53,0,0,0,.75-.07L60.63,94.52a2.69,2.69,0,0,0,.28-2.94A4.55,4.55,0,0,1,61.53,86.63Z"/><circle class="cls-1" cx="86.76" cy="46.6" r="42"/><path class="cls-2" d="M89.21,43c3.72-2.68,7-4.76,7-10s-3.89-8.48-9.17-8.48c-6.41,0-10.73,4.07-10.82,10.82H65.07C65.33,23.78,72.85,14.52,87,14.52c13.24,0,21,7.88,21,18.09,0,8.57-4.5,12-8.22,14.88-6.49,4.93-9,5.8-9,11.94H80.21C80.21,49.31,83.93,46.8,89.21,43Z"/><rect class="cls-2" x="79.17" y="64.97" width="12.63" height="12.55"/></g></g></svg>