<svg xmlns="http://www.w3.org/2000/svg" viewBox="0 0 138.2 174.51"><defs><style>.cls-1{fill:#f76902;}.cls-2{fill:#fff;}.cls-3{stroke:#000;stroke-linecap:round;stroke-linejoin:round;stroke-width:0.5px;}</style></defs><g id="Layer_2" data-name="Layer 2"><g id="Layer_2-2" data-name="Layer 2"><circle class="cls-1" cx="78.82" cy="104.4" r="53.92"/><path d="M78.82,158.64a54.25,54.25,0,1,1,54.25-54.24A54.3,54.3,0,0,1,78.82,158.64Zm0-107.84a53.6,53.6,0,1,0,53.6,53.6A53.65,53.65,0,0,0,78.82,50.8Z"/><path class="cls-2" d="M82.87,107.78c5.26-3.79,9.91-6.72,9.91-14.18s-5.5-12-13-12c-9,0-15.16,5.74-15.28,15.28H48.77c.36-16.26,11-29.34,30.93-29.34,18.7,0,29.7,11.13,29.7,25.55,0,12.1-6.35,17-11.61,21-9.17,7-12.71,8.19-12.71,16.87H70.16C70.16,116.71,75.42,113.16,82.87,107.78Z"/><rect class="cls-2" x="68.69" y="138.83" width="17.85" height="17.73"/><path class="cls-2" d="M110,134.28l9.09,17.54s-45.7,16.53-58.25,12.81-21.33-22.88-21.33-22.88A25.51,25.51,0,0,0,48,147c5.85,2,14.67,4.59,26,2C100,142.81,110,134.28,110,134.28Z"/><path class="cls-2" d="M116,133.06c.39-1.93,1.1-3.67,1.5-5.6a8.69,8.69,0,0,1,2-4.55,27.9,27.9,0,0,0,2.58-3.68c.47-.73.81-2.12,1.31-2.81a1.67,1.67,0,0,1,2.14-.61c2.41,1.26,1.11,4.5,1.11,5.15.61,0,1.67-2.7,2-3.25,1.34-2.6,2.29-4.61,2.41-7.54a29.9,29.9,0,0,1,.25-4.44c.28-1.46.58-2.91,1.89-3.61a17.52,17.52,0,0,0-.58-5.8,10.71,10.71,0,0,1,4.79,6.73,20.36,20.36,0,0,1,.38,3.65l.44,9.76a25.7,25.7,0,0,1-.59,8.67,19.22,19.22,0,0,1-5.53,8.16c-2.41,2.28-5.12,4.22-7.57,6.46-2.72,2.48-5.1,5.3-7.74,7.85a2.36,2.36,0,0,1-1.49.84,2.26,2.26,0,0,1-1.7-1.16,13.93,13.93,0,0,1-2.43-6c-.21-1.35-.15-3.14,1.22-3.89.41-.23.89-.3,1.31-.52a4.14,4.14,0,0,0,1.45-1.46A7.39,7.39,0,0,0,116,133.06Z"/><path class="cls-3" d="M66.2,174.26c-18.46,0-35.32-5.84-44.78-15.72C6.71,143.19-1.42,128,.54,95.93c1.78-29.05,20-43.55,41.16-60.34C54.37,25.52,67.48,15.1,79.22.25l.51.4C67.94,15.57,54.21,26.47,42.1,36.1,21.09,52.79,3,67.21,1.19,96c-1.95,31.86,6.11,46.9,20.7,62.12,10.14,10.59,28.94,16.49,49.05,15.4,20.53-1.12,37.93-9,47.78-21.7l-8.84-17a128.62,128.62,0,0,1-27.74,12.2c-20.24,5.93-35.26,3.16-44.44-7.88a37.8,37.8,0,0,0,16,9c9.28,2.3,21.34.28,28.26-1.75A127.57,127.57,0,0,0,109.83,134a.31.31,0,0,1,.26,0,.34.34,0,0,1,.21.16l9.09,17.54a.32.32,0,0,1,0,.35c-9.94,12.92-27.58,21-48.38,22.11C69.38,174.22,67.78,174.26,66.2,174.26Z"/><path d="M112.35,137.81a.32.32,0,0,1-.19-.59,9.41,9.41,0,0,0,3.13-3.23,13.63,13.63,0,0,0,1.2-4.68,12.33,12.33,0,0,1,1.56-5.35,11.59,11.59,0,0,1,1.29-1.57c.27-.29.54-.58.79-.89a9.51,9.51,0,0,0,1.55-2.67l.16-.43c.42-1.15.9-2.45,2.13-2.85a2.69,2.69,0,0,1,3,1.29,4.71,4.71,0,0,1,.3,3l0,.14c-.35,2.82-2.2,5.6-4,8a.32.32,0,0,1-.45.06.31.31,0,0,1-.07-.45c1.71-2.28,3.5-5,3.84-7.64v-.14a4.07,4.07,0,0,0-.21-2.63,2,2,0,0,0-2.21-1c-.93.3-1.33,1.39-1.72,2.45l-.16.44a10.43,10.43,0,0,1-1.66,2.85c-.26.32-.53.62-.81.92a12.06,12.06,0,0,0-1.23,1.48,11.83,11.83,0,0,0-1.46,5.09,14.09,14.09,0,0,1-1.27,4.9,9.84,9.84,0,0,1-3.33,3.45A.32.32,0,0,1,112.35,137.81Z"/><path d="M132.59,122.7a.41.41,0,0,1-.18,0,.33.33,0,0,1-.1-.45c2.11-3.31,2.52-7.47,2.88-11.13a21.73,21.73,0,0,0-.05-6.83,3.59,3.59,0,0,0-.63-1.49,1.39,1.39,0,0,0-1.26-.53c-.75.17-1.08,1.15-1.23,2-.25,1.36-.39,2.76-.52,4.11-.1,1-.2,2-.34,3.06a14.63,14.63,0,0,1-2.51,6.88.31.31,0,0,1-.45.07.34.34,0,0,1-.07-.46,13.87,13.87,0,0,0,2.38-6.58c.15-1,.25-2,.34-3,.14-1.37.27-2.79.53-4.17s.85-2.27,1.73-2.46a2,2,0,0,1,1.9.74,4.13,4.13,0,0,1,.76,1.77,21.89,21.89,0,0,1,.06,7c-.36,3.73-.78,8-3,11.41A.33.33,0,0,1,132.59,122.7Z"/><path d="M118.28,146.61a.26.26,0,0,1-.19-.07.31.31,0,0,1-.06-.45,3.18,3.18,0,0,0,.41-.77,3.55,3.55,0,0,1,.76-1.2c7.44-5.58,15.83-11.88,17.12-22.22a83.88,83.88,0,0,0,0-18.12c-.29-3.24-.63-6.9-4.28-7.51a.32.32,0,1,1,.11-.64c4.14.69,4.52,4.79,4.82,8.09A85.19,85.19,0,0,1,137,122c-1.33,10.62-9.84,17-17.35,22.63a2.85,2.85,0,0,0-.58,1,3.88,3.88,0,0,1-.5.9A.3.3,0,0,1,118.28,146.61Z"/></g></g></svg>