<svg width="22" height="15" viewBox="0 0 22 15" fill="none" xmlns="http://www.w3.org/2000/svg">
<path d="M5.28802 6.48204C5.21515 6.70797 5.17578 6.94881 5.17578 7.19881V9.96912C5.17578 11.0881 5.97125 12.0515 7.07635 12.2709L10.6227 12.9751C10.9288 13.0359 11.2439 13.0359 11.55 12.9751L15.0963 12.2709C16.2014 12.0515 16.9969 11.0881 16.9969 9.96912V7.19881C16.9969 6.92977 16.9513 6.67133 16.8674 6.43066L11.0936 8.34155C11.0329 8.36162 10.9673 8.36162 10.9067 8.34155L5.28802 6.48204Z" stroke="#626262" stroke-width="2" stroke-linecap="round" stroke-linejoin="round"/>
<path d="M10.9065 1.36124C10.9672 1.34117 11.0328 1.34117 11.0935 1.36124L20.7979 4.57298C21.0674 4.66215 21.0674 5.04054 20.7979 5.12971L11.0935 8.34145C11.0328 8.36152 10.9672 8.36152 10.9065 8.34145L1.20207 5.12971C0.932642 5.04054 0.932642 4.66215 1.20207 4.57298L10.9065 1.36124Z" stroke="#626262" stroke-width="2" stroke-linecap="round" stroke-linejoin="round"/>
<path d="M10.7031 4.55786L3.92874 6.47958C3.04062 6.73151 2.42834 7.53744 2.42834 8.45449V10.2795M2.42834 10.2795L2.13281 13.6538M2.42834 10.2795L2.72387 13.6538" stroke="#626262" stroke-width="2" stroke-linecap="round" stroke-linejoin="round"/>
</svg>
