<svg width="20" height="18" viewBox="0 0 20 18" fill="none" xmlns="http://www.w3.org/2000/svg">
<path d="M15.8412 5.50112L15.9027 5.56284C16.1327 5.79368 16.2619 6.10676 16.2619 6.43322V15.7692C16.2619 16.449 15.7129 17 15.0357 17H5.22619C4.549 17 4 16.449 4 15.7692V2.23078C4 1.55099 4.54906 0.999908 5.22631 1L10.8489 1.00062C11.174 1.00065 11.4858 1.13028 11.7158 1.36102L11.772 1.41748" stroke="#626262" stroke-width="2" stroke-linecap="round" stroke-linejoin="round"/>
<path d="M15.8306 5.48687L11.7929 1.43406C11.6329 1.27348 11.3594 1.3872 11.3594 1.61428V4.69123C11.3594 5.37099 11.9084 5.92201 12.5856 5.92201H15.651C15.8773 5.92201 15.9906 5.64746 15.8306 5.48687Z" stroke="#626262" stroke-width="2" stroke-linecap="round" stroke-linejoin="round"/>
</svg>
